<?xml version="1.0" encoding="utf-8"?>
<svg xmlns="http://www.w3.org/2000/svg" version="1.1" width="193.83px" height="41.761px" viewBox="0 0 193.83 41.761" xmlns:bx="https://boxy-svg.com"><svg width="2000" height="70" data-version="2" data-id="lg_uEr9QYOclpTNBtgOoY" viewBox="0 0 402 70" x="0" y="0" id="object-0" style="transform-box: fill-box; transform-origin: 50% 50%;" transform="matrix(0.8871836662292479, -0.018204083666205403, 0.027684910222887993, 0.583363652229309, 322.83852505386125, 42.22283909792799)"><path d="M -796.98 21.168 L -799 21.168 L -799 1.344 L -796.98 1.344 L -796.98 21.168 Z M -790.13 8.064 C -790.09 8.419 -790.06 8.811 -790.04 9.24 C -790.02 9.669 -790.01 10.024 -790.01 10.304 L -789.96 10.304 C -789.58 9.539 -788.98 8.918 -788.14 8.442 C -787.3 7.966 -786.41 7.728 -785.48 7.728 C -783.82 7.728 -782.57 8.223 -781.74 9.212 C -780.91 10.201 -780.49 11.508 -780.49 13.132 L -780.49 21.168 L -782.4 21.168 L -782.4 13.916 C -782.4 13.225 -782.45 12.6 -782.57 12.04 C -782.68 11.48 -782.87 10.999 -783.14 10.598 C -783.41 10.197 -783.77 9.884 -784.23 9.66 C -784.69 9.436 -785.26 9.324 -785.95 9.324 C -786.46 9.324 -786.95 9.427 -787.42 9.632 C -787.9 9.837 -788.32 10.15 -788.7 10.57 C -789.07 10.99 -789.37 11.522 -789.59 12.166 C -789.82 12.81 -789.93 13.571 -789.93 14.448 L -789.93 21.168 L -791.83 21.168 L -791.83 10.948 C -791.83 10.593 -791.84 10.136 -791.86 9.576 C -791.88 9.016 -791.91 8.512 -791.95 8.064 L -790.13 8.064 Z M -774.87 23.8 C -774.34 24.472 -773.63 25.041 -772.72 25.508 C -771.82 25.975 -770.86 26.208 -769.85 26.208 C -768.92 26.208 -768.13 26.073 -767.47 25.802 C -766.82 25.531 -766.29 25.163 -765.89 24.696 C -765.49 24.229 -765.2 23.683 -765.01 23.058 C -764.82 22.433 -764.73 21.765 -764.73 21.056 L -764.73 18.592 L -764.79 18.592 C -765.29 19.413 -766 20.048 -766.93 20.496 C -767.85 20.944 -768.79 21.168 -769.74 21.168 C -770.77 21.168 -771.7 21 -772.53 20.664 C -773.36 20.328 -774.07 19.866 -774.66 19.278 C -775.24 18.69 -775.7 17.985 -776.03 17.164 C -776.36 16.343 -776.52 15.456 -776.52 14.504 C -776.52 13.571 -776.36 12.693 -776.03 11.872 C -775.7 11.051 -775.24 10.332 -774.66 9.716 C -774.07 9.1 -773.36 8.615 -772.53 8.26 C -771.7 7.905 -770.77 7.728 -769.74 7.728 C -768.79 7.728 -767.86 7.952 -766.94 8.4 C -766.03 8.848 -765.31 9.492 -764.79 10.332 L -764.73 10.332 L -764.73 8.064 L -762.83 8.064 L -762.83 21.056 C -762.83 21.765 -762.92 22.521 -763.12 23.324 C -763.32 24.127 -763.68 24.864 -764.21 25.536 C -764.74 26.208 -765.47 26.768 -766.38 27.216 C -767.3 27.664 -768.48 27.888 -769.94 27.888 C -771.15 27.888 -772.31 27.655 -773.41 27.188 C -774.51 26.721 -775.45 26.077 -776.24 25.256 L -774.87 23.8 Z M -774.5 14.448 C -774.5 15.139 -774.39 15.792 -774.17 16.408 C -773.94 17.024 -773.62 17.565 -773.2 18.032 C -772.78 18.499 -772.26 18.867 -771.65 19.138 C -771.03 19.409 -770.33 19.544 -769.55 19.544 C -768.82 19.544 -768.15 19.423 -767.53 19.18 C -766.91 18.937 -766.38 18.592 -765.93 18.144 C -765.49 17.696 -765.14 17.159 -764.88 16.534 C -764.63 15.909 -764.51 15.213 -764.51 14.448 C -764.51 13.757 -764.63 13.104 -764.88 12.488 C -765.14 11.872 -765.49 11.331 -765.93 10.864 C -766.38 10.397 -766.91 10.024 -767.53 9.744 C -768.15 9.464 -768.82 9.324 -769.55 9.324 C -770.33 9.324 -771.03 9.464 -771.65 9.744 C -772.26 10.024 -772.78 10.397 -773.2 10.864 C -773.62 11.331 -773.94 11.872 -774.17 12.488 C -774.39 13.104 -774.5 13.757 -774.5 14.448 Z M -755.24 19.824 C -755.24 20.216 -755.38 20.566 -755.66 20.874 C -755.94 21.182 -756.3 21.336 -756.75 21.336 C -757.2 21.336 -757.56 21.182 -757.84 20.874 C -758.12 20.566 -758.26 20.216 -758.26 19.824 C -758.26 19.432 -758.12 19.082 -757.84 18.774 C -757.56 18.466 -757.2 18.312 -756.75 18.312 C -756.3 18.312 -755.94 18.466 -755.66 18.774 C -755.38 19.082 -755.24 19.432 -755.24 19.824 Z M -742.3 19.376 L -731.69 19.376 L -731.69 21.168 L -744.32 21.168 L -744.32 1.344 L -732.03 1.344 L -732.03 3.136 L -742.3 3.136 L -742.3 9.968 L -732.7 9.968 L -732.7 11.732 L -742.3 11.732 L -742.3 19.376 Z M -722.82 21.168 L -724.92 21.168 L -730.27 8.064 L -728.14 8.064 L -723.88 19.152 L -723.83 19.152 L -719.54 8.064 L -717.5 8.064 L -722.82 21.168 Z M -706.27 12.712 C -706.27 11.573 -706.57 10.724 -707.17 10.164 C -707.76 9.604 -708.63 9.324 -709.77 9.324 C -710.56 9.324 -711.28 9.464 -711.96 9.744 C -712.63 10.024 -713.2 10.397 -713.66 10.864 L -714.73 9.604 C -714.19 9.063 -713.47 8.615 -712.59 8.26 C -711.7 7.905 -710.7 7.728 -709.58 7.728 C -708.87 7.728 -708.2 7.826 -707.59 8.022 C -706.97 8.218 -706.43 8.512 -705.96 8.904 C -705.5 9.296 -705.13 9.791 -704.87 10.388 C -704.61 10.985 -704.48 11.685 -704.48 12.488 L -704.48 18.228 C -704.48 18.732 -704.46 19.255 -704.42 19.796 C -704.39 20.337 -704.33 20.795 -704.26 21.168 L -705.96 21.168 C -706.02 20.851 -706.07 20.505 -706.1 20.132 C -706.14 19.759 -706.16 19.395 -706.16 19.04 L -706.22 19.04 C -706.81 19.917 -707.49 20.547 -708.25 20.93 C -709 21.313 -709.91 21.504 -710.98 21.504 C -711.48 21.504 -712 21.434 -712.53 21.294 C -713.06 21.154 -713.55 20.925 -713.99 20.608 C -714.42 20.291 -714.79 19.88 -715.08 19.376 C -715.37 18.872 -715.51 18.256 -715.51 17.528 C -715.51 16.52 -715.25 15.722 -714.74 15.134 C -714.23 14.546 -713.54 14.107 -712.68 13.818 C -711.83 13.529 -710.84 13.342 -709.73 13.258 C -708.62 13.174 -707.47 13.132 -706.27 13.132 L -706.27 12.712 Z M -706.83 14.616 C -707.62 14.616 -708.4 14.649 -709.2 14.714 C -709.99 14.779 -710.71 14.91 -711.35 15.106 C -712 15.302 -712.52 15.587 -712.94 15.96 C -713.35 16.333 -713.55 16.828 -713.55 17.444 C -713.55 17.911 -713.46 18.303 -713.29 18.62 C -713.11 18.937 -712.87 19.194 -712.57 19.39 C -712.27 19.586 -711.94 19.726 -711.58 19.81 C -711.21 19.894 -710.85 19.936 -710.47 19.936 C -709.8 19.936 -709.2 19.819 -708.68 19.586 C -708.16 19.353 -707.72 19.035 -707.36 18.634 C -707.01 18.233 -706.74 17.771 -706.55 17.248 C -706.37 16.725 -706.27 16.175 -706.27 15.596 L -706.27 14.616 L -706.83 14.616 Z M -690.45 10.248 L -690.43 10.248 L -680.99 1.344 L -678.11 1.344 L -688.1 10.332 L -677.55 21.168 L -680.51 21.168 L -690.43 10.612 L -690.45 10.612 L -690.45 21.168 L -692.47 21.168 L -692.47 1.344 L -690.45 1.344 L -690.45 10.248 Z M -665.84 13.608 C -665.9 12.376 -666.3 11.354 -667.03 10.542 C -667.77 9.73 -668.82 9.324 -670.18 9.324 C -670.82 9.324 -671.41 9.441 -671.95 9.674 C -672.49 9.907 -672.97 10.225 -673.38 10.626 C -673.79 11.027 -674.11 11.485 -674.36 11.998 C -674.6 12.511 -674.74 13.048 -674.78 13.608 L -665.84 13.608 Z M -663.91 14.224 C -663.91 14.355 -663.91 14.495 -663.91 14.644 C -663.91 14.793 -663.92 14.952 -663.94 15.12 L -674.8 15.12 C -674.78 15.773 -674.65 16.389 -674.41 16.968 C -674.17 17.547 -673.83 18.051 -673.4 18.48 C -672.98 18.909 -672.47 19.25 -671.89 19.502 C -671.31 19.754 -670.69 19.88 -670.02 19.88 C -669.03 19.88 -668.17 19.651 -667.45 19.194 C -666.74 18.737 -666.19 18.209 -665.82 17.612 L -664.39 18.732 C -665.17 19.721 -666.03 20.431 -666.98 20.86 C -667.92 21.289 -668.93 21.504 -670.02 21.504 C -670.99 21.504 -671.89 21.331 -672.72 20.986 C -673.55 20.641 -674.26 20.16 -674.86 19.544 C -675.46 18.928 -675.93 18.2 -676.27 17.36 C -676.62 16.52 -676.79 15.605 -676.79 14.616 C -676.79 13.627 -676.62 12.712 -676.29 11.872 C -675.95 11.032 -675.49 10.304 -674.89 9.688 C -674.29 9.072 -673.59 8.591 -672.79 8.246 C -671.99 7.901 -671.12 7.728 -670.18 7.728 C -669.16 7.728 -668.25 7.901 -667.47 8.246 C -666.68 8.591 -666.03 9.058 -665.51 9.646 C -664.99 10.234 -664.59 10.92 -664.32 11.704 C -664.05 12.488 -663.91 13.328 -663.91 14.224 Z M -658.12 8.064 C -658.08 8.419 -658.05 8.811 -658.03 9.24 C -658.01 9.669 -658 10.024 -658 10.304 L -657.95 10.304 C -657.57 9.539 -656.97 8.918 -656.13 8.442 C -655.29 7.966 -654.4 7.728 -653.47 7.728 C -651.81 7.728 -650.56 8.223 -649.73 9.212 C -648.9 10.201 -648.48 11.508 -648.48 13.132 L -648.48 21.168 L -650.39 21.168 L -650.39 13.916 C -650.39 13.225 -650.44 12.6 -650.55 12.04 C -650.67 11.48 -650.86 10.999 -651.13 10.598 C -651.4 10.197 -651.76 9.884 -652.22 9.66 C -652.68 9.436 -653.25 9.324 -653.94 9.324 C -654.45 9.324 -654.94 9.427 -655.41 9.632 C -655.89 9.837 -656.31 10.15 -656.69 10.57 C -657.06 10.99 -657.36 11.522 -657.58 12.166 C -657.81 12.81 -657.92 13.571 -657.92 14.448 L -657.92 21.168 L -659.82 21.168 L -659.82 10.948 C -659.82 10.593 -659.83 10.136 -659.85 9.576 C -659.87 9.016 -659.9 8.512 -659.93 8.064 L -658.12 8.064 Z M -634.12 11.06 C -634.44 10.556 -634.9 10.141 -635.51 9.814 C -636.11 9.487 -636.77 9.324 -637.48 9.324 C -638.25 9.324 -638.94 9.459 -639.55 9.73 C -640.17 10.001 -640.7 10.374 -641.13 10.85 C -641.57 11.326 -641.91 11.886 -642.14 12.53 C -642.38 13.174 -642.49 13.869 -642.49 14.616 C -642.49 15.363 -642.38 16.053 -642.14 16.688 C -641.91 17.323 -641.58 17.878 -641.15 18.354 C -640.72 18.83 -640.2 19.203 -639.58 19.474 C -638.96 19.745 -638.27 19.88 -637.51 19.88 C -636.67 19.88 -635.96 19.721 -635.38 19.404 C -634.8 19.087 -634.33 18.676 -633.95 18.172 L -632.52 19.236 C -633.08 19.927 -633.77 20.477 -634.58 20.888 C -635.39 21.299 -636.37 21.504 -637.51 21.504 C -638.57 21.504 -639.53 21.331 -640.39 20.986 C -641.25 20.641 -641.98 20.16 -642.59 19.544 C -643.2 18.928 -643.67 18.2 -644 17.36 C -644.34 16.52 -644.51 15.605 -644.51 14.616 C -644.51 13.627 -644.34 12.712 -644 11.872 C -643.67 11.032 -643.2 10.304 -642.59 9.688 C -641.98 9.072 -641.25 8.591 -640.39 8.246 C -639.53 7.901 -638.57 7.728 -637.51 7.728 C -636.63 7.728 -635.74 7.919 -634.83 8.302 C -633.93 8.685 -633.2 9.249 -632.64 9.996 L -634.12 11.06 Z M -627.6 13.972 L -627.51 13.972 L -621.46 8.064 L -618.72 8.064 L -625.33 14.056 L -618.05 21.168 L -620.85 21.168 L -627.51 14.28 L -627.6 14.28 L -627.6 21.168 L -629.5 21.168 L -629.5 0 L -627.6 0 L -627.6 13.972 Z M -607.19 12.712 C -607.19 11.573 -607.49 10.724 -608.08 10.164 C -608.68 9.604 -609.55 9.324 -610.69 9.324 C -611.47 9.324 -612.2 9.464 -612.87 9.744 C -613.54 10.024 -614.11 10.397 -614.58 10.864 L -615.64 9.604 C -615.1 9.063 -614.39 8.615 -613.5 8.26 C -612.62 7.905 -611.61 7.728 -610.49 7.728 C -609.78 7.728 -609.12 7.826 -608.5 8.022 C -607.89 8.218 -607.35 8.512 -606.88 8.904 C -606.41 9.296 -606.05 9.791 -605.79 10.388 C -605.53 10.985 -605.4 11.685 -605.4 12.488 L -605.4 18.228 C -605.4 18.732 -605.38 19.255 -605.34 19.796 C -605.3 20.337 -605.25 20.795 -605.17 21.168 L -606.88 21.168 C -606.94 20.851 -606.98 20.505 -607.02 20.132 C -607.06 19.759 -607.08 19.395 -607.08 19.04 L -607.13 19.04 C -607.73 19.917 -608.41 20.547 -609.16 20.93 C -609.92 21.313 -610.83 21.504 -611.89 21.504 C -612.4 21.504 -612.91 21.434 -613.45 21.294 C -613.98 21.154 -614.46 20.925 -614.9 20.608 C -615.34 20.291 -615.71 19.88 -615.99 19.376 C -616.28 18.872 -616.43 18.256 -616.43 17.528 C -616.43 16.52 -616.17 15.722 -615.66 15.134 C -615.14 14.546 -614.46 14.107 -613.6 13.818 C -612.74 13.529 -611.76 13.342 -610.65 13.258 C -609.53 13.174 -608.38 13.132 -607.19 13.132 L -607.19 12.712 Z M -607.75 14.616 C -608.53 14.616 -609.32 14.649 -610.11 14.714 C -610.91 14.779 -611.63 14.91 -612.27 15.106 C -612.91 15.302 -613.44 15.587 -613.85 15.96 C -614.26 16.333 -614.47 16.828 -614.47 17.444 C -614.47 17.911 -614.38 18.303 -614.2 18.62 C -614.02 18.937 -613.79 19.194 -613.49 19.39 C -613.19 19.586 -612.86 19.726 -612.49 19.81 C -612.13 19.894 -611.76 19.936 -611.39 19.936 C -610.72 19.936 -610.12 19.819 -609.6 19.586 C -609.07 19.353 -608.63 19.035 -608.28 18.634 C -607.92 18.233 -607.65 17.771 -607.47 17.248 C -607.28 16.725 -607.19 16.175 -607.19 15.596 L -607.19 14.616 L -607.75 14.616 Z M -610.3 5.376 L -611.95 5.376 L -609.15 1.344 L -606.6 1.344 L -610.3 5.376 Z" style="fill: rgb(164, 57, 49); text-wrap-mode: nowrap;"/><path d="M -753.12 38.653 C -753.87 38.653 -754.48 38.525 -754.96 38.268 C -755.43 38.011 -755.81 37.687 -756.09 37.295 C -756.37 36.903 -756.56 36.476 -756.67 36.014 C -756.78 35.552 -756.83 35.116 -756.83 34.705 L -756.83 28.489 L -755.82 28.489 L -755.82 34.593 C -755.82 34.994 -755.78 35.384 -755.68 35.762 C -755.59 36.14 -755.44 36.476 -755.23 36.77 C -755.02 37.064 -754.74 37.302 -754.39 37.484 C -754.05 37.666 -753.63 37.757 -753.12 37.757 C -752.62 37.757 -752.19 37.666 -751.85 37.484 C -751.5 37.302 -751.22 37.064 -751.01 36.77 C -750.8 36.476 -750.65 36.14 -750.56 35.762 C -750.47 35.384 -750.42 34.994 -750.42 34.593 L -750.42 28.489 L -749.41 28.489 L -749.41 34.705 C -749.41 35.116 -749.47 35.552 -749.57 36.014 C -749.68 36.476 -749.87 36.903 -750.15 37.295 C -750.43 37.687 -750.81 38.011 -751.29 38.268 C -751.77 38.525 -752.38 38.653 -753.12 38.653 Z M -752.98 27.705 L -753.81 27.705 L -752.41 25.689 L -751.13 25.689 L -752.98 27.705 Z M -742.17 33.347 C -742.33 33.095 -742.56 32.887 -742.87 32.724 C -743.17 32.561 -743.5 32.479 -743.85 32.479 C -744.24 32.479 -744.58 32.547 -744.89 32.682 C -745.2 32.817 -745.46 33.004 -745.68 33.242 C -745.9 33.48 -746.07 33.76 -746.18 34.082 C -746.3 34.404 -746.36 34.752 -746.36 35.125 C -746.36 35.498 -746.3 35.844 -746.18 36.161 C -746.07 36.478 -745.9 36.756 -745.69 36.994 C -745.47 37.232 -745.21 37.419 -744.9 37.554 C -744.6 37.689 -744.25 37.757 -743.87 37.757 C -743.45 37.757 -743.09 37.678 -742.8 37.519 C -742.51 37.36 -742.28 37.155 -742.09 36.903 L -741.38 37.435 C -741.66 37.78 -742 38.056 -742.4 38.261 C -742.81 38.466 -743.3 38.569 -743.87 38.569 C -744.4 38.569 -744.88 38.483 -745.31 38.31 C -745.74 38.137 -746.11 37.897 -746.41 37.589 C -746.71 37.281 -746.95 36.917 -747.12 36.497 C -747.28 36.077 -747.37 35.62 -747.37 35.125 C -747.37 34.63 -747.28 34.173 -747.12 33.753 C -746.95 33.333 -746.71 32.969 -746.41 32.661 C -746.11 32.353 -745.74 32.113 -745.31 31.94 C -744.88 31.767 -744.4 31.681 -743.87 31.681 C -743.43 31.681 -742.98 31.777 -742.53 31.968 C -742.08 32.159 -741.71 32.442 -741.43 32.815 L -742.17 33.347 Z M -743.34 30.505 L -744.46 30.505 L -745.98 28.489 L -745.06 28.489 L -743.9 30.001 L -742.73 28.489 L -741.81 28.489 L -743.34 30.505 Z M -734.89 34.621 C -734.92 34.005 -735.12 33.494 -735.49 33.088 C -735.86 32.682 -736.38 32.479 -737.07 32.479 C -737.38 32.479 -737.68 32.537 -737.95 32.654 C -738.22 32.771 -738.46 32.929 -738.66 33.13 C -738.87 33.331 -739.03 33.559 -739.15 33.816 C -739.27 34.073 -739.34 34.341 -739.36 34.621 L -734.89 34.621 Z M -733.93 34.929 C -733.93 34.994 -733.93 35.064 -733.93 35.139 C -733.93 35.214 -733.93 35.293 -733.94 35.377 L -739.38 35.377 C -739.37 35.704 -739.3 36.012 -739.18 36.301 C -739.06 36.59 -738.89 36.842 -738.67 37.057 C -738.46 37.272 -738.21 37.442 -737.92 37.568 C -737.63 37.694 -737.32 37.757 -736.98 37.757 C -736.49 37.757 -736.06 37.643 -735.7 37.414 C -735.34 37.185 -735.07 36.922 -734.88 36.623 L -734.17 37.183 C -734.56 37.678 -734.99 38.032 -735.46 38.247 C -735.93 38.462 -736.44 38.569 -736.98 38.569 C -737.47 38.569 -737.92 38.483 -738.33 38.31 C -738.75 38.137 -739.1 37.897 -739.4 37.589 C -739.7 37.281 -739.94 36.917 -740.11 36.497 C -740.28 36.077 -740.37 35.62 -740.37 35.125 C -740.37 34.63 -740.28 34.173 -740.12 33.753 C -739.95 33.333 -739.72 32.969 -739.42 32.661 C -739.12 32.353 -738.77 32.113 -738.37 31.94 C -737.97 31.767 -737.53 31.681 -737.07 31.681 C -736.55 31.681 -736.1 31.767 -735.71 31.94 C -735.32 32.113 -734.99 32.346 -734.73 32.64 C -734.47 32.934 -734.27 33.277 -734.13 33.669 C -734 34.061 -733.93 34.481 -733.93 34.929 Z M -728.93 32.647 L -730.78 32.647 L -730.78 36.469 C -730.78 36.712 -730.76 36.912 -730.71 37.071 C -730.66 37.23 -730.6 37.353 -730.51 37.442 C -730.42 37.531 -730.32 37.591 -730.19 37.624 C -730.07 37.657 -729.94 37.673 -729.8 37.673 C -729.67 37.673 -729.53 37.654 -729.39 37.617 C -729.24 37.58 -729.11 37.528 -728.98 37.463 L -728.93 38.289 C -729.1 38.354 -729.28 38.403 -729.46 38.436 C -729.64 38.469 -729.84 38.485 -730.05 38.485 C -730.23 38.485 -730.42 38.462 -730.61 38.415 C -730.81 38.368 -730.99 38.28 -731.16 38.149 C -731.33 38.018 -731.47 37.841 -731.57 37.617 C -731.68 37.393 -731.73 37.099 -731.73 36.735 L -731.73 32.647 L -733.09 32.647 L -733.09 31.849 L -731.73 31.849 L -731.73 30.001 L -730.78 30.001 L -730.78 31.849 L -728.93 31.849 L -728.93 32.647 Z M -726.6 31.849 C -726.58 32.026 -726.56 32.222 -726.55 32.437 C -726.54 32.652 -726.54 32.829 -726.54 32.969 L -726.51 32.969 C -726.33 32.586 -726.02 32.276 -725.6 32.038 C -725.18 31.8 -724.74 31.681 -724.27 31.681 C -723.44 31.681 -722.82 31.928 -722.4 32.423 C -721.99 32.918 -721.78 33.571 -721.78 34.383 L -721.78 38.401 L -722.73 38.401 L -722.73 34.775 C -722.73 34.43 -722.76 34.117 -722.82 33.837 C -722.87 33.557 -722.97 33.317 -723.1 33.116 C -723.24 32.915 -723.42 32.759 -723.65 32.647 C -723.88 32.535 -724.16 32.479 -724.51 32.479 C -724.76 32.479 -725.01 32.53 -725.25 32.633 C -725.48 32.736 -725.7 32.892 -725.88 33.102 C -726.07 33.312 -726.22 33.578 -726.33 33.9 C -726.44 34.222 -726.5 34.602 -726.5 35.041 L -726.5 38.401 L -727.45 38.401 L -727.45 33.291 C -727.45 33.114 -727.46 32.885 -727.46 32.605 C -727.47 32.325 -727.49 32.073 -727.51 31.849 L -726.6 31.849 Z M -718.35 38.401 L -719.3 38.401 L -719.3 31.849 L -718.35 31.849 L -718.35 38.401 Z M -718.15 29.329 C -718.15 29.525 -718.22 29.686 -718.36 29.812 C -718.5 29.938 -718.66 30.001 -718.82 30.001 C -718.99 30.001 -719.15 29.938 -719.29 29.812 C -719.43 29.686 -719.5 29.525 -719.5 29.329 C -719.5 29.133 -719.43 28.972 -719.29 28.846 C -719.15 28.72 -718.99 28.657 -718.82 28.657 C -718.66 28.657 -718.5 28.72 -718.36 28.846 C -718.22 28.972 -718.15 29.133 -718.15 29.329 Z M -711.1 33.347 C -711.26 33.095 -711.49 32.887 -711.79 32.724 C -712.09 32.561 -712.42 32.479 -712.78 32.479 C -713.16 32.479 -713.51 32.547 -713.81 32.682 C -714.12 32.817 -714.39 33.004 -714.61 33.242 C -714.82 33.48 -714.99 33.76 -715.11 34.082 C -715.23 34.404 -715.28 34.752 -715.28 35.125 C -715.28 35.498 -715.23 35.844 -715.11 36.161 C -714.99 36.478 -714.83 36.756 -714.61 36.994 C -714.4 37.232 -714.14 37.419 -713.83 37.554 C -713.52 37.689 -713.17 37.757 -712.79 37.757 C -712.37 37.757 -712.02 37.678 -711.73 37.519 C -711.44 37.36 -711.2 37.155 -711.01 36.903 L -710.3 37.435 C -710.58 37.78 -710.92 38.056 -711.33 38.261 C -711.74 38.466 -712.22 38.569 -712.79 38.569 C -713.32 38.569 -713.8 38.483 -714.23 38.31 C -714.66 38.137 -715.03 37.897 -715.33 37.589 C -715.64 37.281 -715.87 36.917 -716.04 36.497 C -716.21 36.077 -716.29 35.62 -716.29 35.125 C -716.29 34.63 -716.21 34.173 -716.04 33.753 C -715.87 33.333 -715.64 32.969 -715.33 32.661 C -715.03 32.353 -714.66 32.113 -714.23 31.94 C -713.8 31.767 -713.32 31.681 -712.79 31.681 C -712.35 31.681 -711.91 31.777 -711.46 31.968 C -711 32.159 -710.64 32.442 -710.36 32.815 L -711.1 33.347 Z M -705.86 32.647 L -707.71 32.647 L -707.71 36.469 C -707.71 36.712 -707.69 36.912 -707.64 37.071 C -707.59 37.23 -707.53 37.353 -707.44 37.442 C -707.35 37.531 -707.24 37.591 -707.12 37.624 C -707 37.657 -706.87 37.673 -706.73 37.673 C -706.6 37.673 -706.46 37.654 -706.32 37.617 C -706.17 37.58 -706.04 37.528 -705.9 37.463 L -705.86 38.289 C -706.03 38.354 -706.21 38.403 -706.39 38.436 C -706.57 38.469 -706.77 38.485 -706.98 38.485 C -707.16 38.485 -707.35 38.462 -707.54 38.415 C -707.74 38.368 -707.92 38.28 -708.09 38.149 C -708.26 38.018 -708.39 37.841 -708.5 37.617 C -708.61 37.393 -708.66 37.099 -708.66 36.735 L -708.66 32.647 L -710.02 32.647 L -710.02 31.849 L -708.66 31.849 L -708.66 30.001 L -707.71 30.001 L -707.71 31.849 L -705.86 31.849 L -705.86 32.647 Z M -701.69 38.401 L -702.74 38.401 L -705.41 31.849 L -704.35 31.849 L -702.22 37.393 L -702.2 37.393 L -700.05 31.849 L -699.03 31.849 L -701.69 38.401 Z M -696.58 38.401 L -697.53 38.401 L -697.53 31.849 L -696.58 31.849 L -696.58 38.401 Z M -696.71 30.505 L -697.53 30.505 L -696.13 28.489 L -694.86 28.489 L -696.71 30.505 Z M -686.42 34.173 C -686.42 33.604 -686.57 33.179 -686.87 32.899 C -687.16 32.619 -687.6 32.479 -688.17 32.479 C -688.56 32.479 -688.92 32.549 -689.26 32.689 C -689.6 32.829 -689.88 33.016 -690.11 33.249 L -690.64 32.619 C -690.37 32.348 -690.02 32.124 -689.57 31.947 C -689.13 31.77 -688.63 31.681 -688.07 31.681 C -687.71 31.681 -687.38 31.73 -687.08 31.828 C -686.77 31.926 -686.5 32.073 -686.26 32.269 C -686.03 32.465 -685.85 32.712 -685.72 33.011 C -685.59 33.31 -685.52 33.66 -685.52 34.061 L -685.52 36.931 C -685.52 37.183 -685.51 37.444 -685.49 37.715 C -685.47 37.986 -685.45 38.214 -685.41 38.401 L -686.26 38.401 C -686.29 38.242 -686.31 38.07 -686.33 37.883 C -686.35 37.696 -686.36 37.514 -686.36 37.337 L -686.39 37.337 C -686.69 37.776 -687.03 38.091 -687.4 38.282 C -687.78 38.473 -688.24 38.569 -688.77 38.569 C -689.02 38.569 -689.28 38.534 -689.55 38.464 C -689.81 38.394 -690.05 38.28 -690.27 38.121 C -690.49 37.962 -690.67 37.757 -690.82 37.505 C -690.97 37.253 -691.04 36.945 -691.04 36.581 C -691.04 36.077 -690.91 35.678 -690.65 35.384 C -690.39 35.09 -690.05 34.871 -689.62 34.726 C -689.19 34.581 -688.7 34.488 -688.15 34.446 C -687.59 34.404 -687.01 34.383 -686.42 34.383 L -686.42 34.173 Z M -686.7 35.125 C -687.09 35.125 -687.48 35.141 -687.88 35.174 C -688.28 35.207 -688.64 35.272 -688.96 35.37 C -689.28 35.468 -689.54 35.61 -689.75 35.797 C -689.95 35.984 -690.06 36.231 -690.06 36.539 C -690.06 36.772 -690.01 36.968 -689.92 37.127 C -689.84 37.286 -689.72 37.414 -689.57 37.512 C -689.42 37.61 -689.25 37.68 -689.07 37.722 C -688.89 37.764 -688.7 37.785 -688.52 37.785 C -688.18 37.785 -687.88 37.727 -687.62 37.61 C -687.36 37.493 -687.14 37.335 -686.96 37.134 C -686.79 36.933 -686.65 36.702 -686.56 36.441 C -686.46 36.18 -686.42 35.904 -686.42 35.615 L -686.42 35.125 L -686.7 35.125 Z M -678.64 32.969 C -678.45 32.586 -678.16 32.276 -677.77 32.038 C -677.39 31.8 -676.96 31.681 -676.48 31.681 C -676.3 31.681 -676.12 31.7 -675.93 31.737 C -675.74 31.774 -675.55 31.847 -675.37 31.954 C -675.18 32.061 -675.02 32.204 -674.86 32.381 C -674.71 32.558 -674.58 32.787 -674.46 33.067 C -674.24 32.619 -673.93 32.276 -673.55 32.038 C -673.16 31.8 -672.7 31.681 -672.17 31.681 C -671.34 31.681 -670.71 31.928 -670.3 32.423 C -669.88 32.918 -669.68 33.571 -669.68 34.383 L -669.68 38.401 L -670.63 38.401 L -670.63 34.775 C -670.63 34.084 -670.76 33.529 -671.01 33.109 C -671.27 32.689 -671.71 32.479 -672.32 32.479 C -672.67 32.479 -672.96 32.549 -673.2 32.689 C -673.43 32.829 -673.63 33.013 -673.77 33.242 C -673.92 33.471 -674.02 33.73 -674.09 34.019 C -674.15 34.308 -674.18 34.607 -674.18 34.915 L -674.18 38.401 L -675.14 38.401 L -675.14 34.579 C -675.14 34.262 -675.16 33.972 -675.21 33.711 C -675.25 33.45 -675.33 33.228 -675.45 33.046 C -675.57 32.864 -675.73 32.724 -675.93 32.626 C -676.14 32.528 -676.4 32.479 -676.72 32.479 C -676.94 32.479 -677.17 32.53 -677.4 32.633 C -677.63 32.736 -677.83 32.892 -678.01 33.102 C -678.2 33.312 -678.34 33.578 -678.45 33.9 C -678.57 34.222 -678.62 34.602 -678.62 35.041 L -678.62 38.401 L -679.57 38.401 L -679.57 33.291 C -679.57 33.114 -679.58 32.885 -679.59 32.605 C -679.6 32.325 -679.61 32.073 -679.63 31.849 L -678.72 31.849 C -678.7 32.026 -678.69 32.222 -678.68 32.437 C -678.67 32.652 -678.66 32.829 -678.66 32.969 L -678.64 32.969 Z M -662.86 32.521 L -666.78 37.575 L -662.72 37.575 L -662.72 38.401 L -668.04 38.401 L -668.04 37.729 L -664.13 32.647 L -667.84 32.647 L -667.84 31.849 L -662.86 31.849 L -662.86 32.521 Z M -655.63 37.295 C -655.91 37.715 -656.28 38.032 -656.73 38.247 C -657.17 38.462 -657.64 38.569 -658.11 38.569 C -658.63 38.569 -659.09 38.48 -659.5 38.303 C -659.92 38.126 -660.27 37.883 -660.57 37.575 C -660.86 37.267 -661.09 36.903 -661.25 36.483 C -661.42 36.063 -661.5 35.61 -661.5 35.125 C -661.5 34.64 -661.42 34.187 -661.25 33.767 C -661.09 33.347 -660.86 32.983 -660.57 32.675 C -660.27 32.367 -659.92 32.124 -659.5 31.947 C -659.09 31.77 -658.63 31.681 -658.11 31.681 C -657.64 31.681 -657.17 31.791 -656.73 32.01 C -656.28 32.229 -655.91 32.554 -655.63 32.983 L -655.61 32.983 L -655.61 27.817 L -654.65 27.817 L -654.65 38.401 L -655.61 38.401 L -655.61 37.295 L -655.63 37.295 Z M -660.49 35.125 C -660.49 35.489 -660.44 35.832 -660.32 36.154 C -660.21 36.476 -660.05 36.756 -659.84 36.994 C -659.63 37.232 -659.37 37.419 -659.06 37.554 C -658.76 37.689 -658.41 37.757 -658.01 37.757 C -657.65 37.757 -657.31 37.689 -657.01 37.554 C -656.7 37.419 -656.43 37.234 -656.21 37.001 C -655.98 36.768 -655.81 36.49 -655.68 36.168 C -655.56 35.846 -655.49 35.498 -655.49 35.125 C -655.49 34.752 -655.56 34.404 -655.68 34.082 C -655.81 33.76 -655.98 33.48 -656.21 33.242 C -656.43 33.004 -656.7 32.817 -657.01 32.682 C -657.31 32.547 -657.65 32.479 -658.01 32.479 C -658.41 32.479 -658.76 32.549 -659.06 32.689 C -659.37 32.829 -659.63 33.018 -659.84 33.256 C -660.05 33.494 -660.21 33.774 -660.32 34.096 C -660.44 34.418 -660.49 34.761 -660.49 35.125 Z M -649.85 37.379 L -649.82 37.379 L -647.79 31.849 L -646.76 31.849 L -650.02 40.095 C -650.22 40.599 -650.47 41.003 -650.77 41.306 C -651.07 41.609 -651.51 41.761 -652.08 41.761 C -652.37 41.761 -652.65 41.733 -652.93 41.677 L -652.83 40.809 C -652.61 40.884 -652.38 40.921 -652.13 40.921 C -651.81 40.921 -651.55 40.821 -651.36 40.62 C -651.18 40.419 -651.01 40.132 -650.87 39.759 L -650.34 38.387 L -653.14 31.849 L -652.08 31.849 L -649.85 37.379 Z" style="fill: rgb(51, 51, 51); text-wrap-mode: nowrap;"/></svg><defs><bx:export><bx:file format="svg" width="193.83" height="41.761"/></bx:export></defs></svg>