<svg baseProfile="tiny" xmlns="http://www.w3.org/2000/svg" viewBox="0 0 336 235.2" overflow="scroll">
    <switch>
        <g>
            <g fill-rule="evenodd">
                <path fill="#F47648"
                      d="M228.4 95.4h.1c2.6.5 4.4 3 3.9 5.6l-7 39.4-9.7-1.7 7-39.4c.6-2.6 3.1-4.3 5.7-3.9"></path>
                <path fill="#4D1134" d="M226.6 95.5h-10.8v34.3h1.6l5.4-30.4c.4-2.1 1.9-3.6 3.8-3.9"></path>
            </g>
            <path fill-rule="evenodd" fill="#D6E6B1"
                  d="M299.5 192.2h-263c-2.3 0-4.2 1.9-4.2 4.2 0 2.3 1.9 4.2 4.2 4.2h42c2.3 0 4.2 1.9 4.2 4.2 0 2.3-1.9 4.2-4.2 4.2H44.7c-2.3 0-4.2 1.9-4.2 4.2 0 2.3 1.9 4.2 4.2 4.2h240.5c2.3 0 4.2-1.9 4.2-4.2 0-2.3-1.9-4.2-4.2-4.2h-16.5c-2.3 0-4.2-1.9-4.2-4.2 0-2.3 1.9-4.2 4.2-4.2h30.8c2.3 0 4.2-1.9 4.2-4.2 0-2.3-1.9-4.2-4.2-4.2">
            </path>
            <g fill-rule="evenodd">
                <path fill="#D4653D" d="M87.8 129.8h38.6V122H87.8c-2 0-3.6 1.6-3.6 3.6v.6c0 2 1.6 3.6 3.6 3.6"></path>
                <path fill="#F47648" d="M87.8 129.8h26V122h-26c-2 0-3.6 1.6-3.6 3.6v.6c0 2 1.6 3.6 3.6 3.6"></path>
                <path fill="#FFF" d="M89.3 128h24.4v-4.2H89.3c-1.1 0-1.9.9-1.9 1.9v.3c0 1.1.9 2 1.9 2"></path>
                <path fill="#CBCACA" d="M113.8 123.8h12.6v4.2h-12.6z"></path>
            </g>
            <g fill-rule="evenodd">
                <path fill="#92C13E" d="M80.9 122h38.6v-7.8H80.9c-2 0-3.6 1.6-3.6 3.6v.6c0 2 1.6 3.6 3.6 3.6"></path>
                <path fill="#9CCB3B" d="M80.9 122h26v-7.8h-26c-2 0-3.6 1.6-3.6 3.6v.6c0 2 1.6 3.6 3.6 3.6"></path>
                <path fill="#FFF" d="M82.4 120.2h24.4V116H82.4c-1.1 0-1.9.9-1.9 1.9v.3c0 1.1.8 2 1.9 2"></path>
                <path fill="#CBCACA" d="M106.8 116h12.6v4.2h-12.6z"></path>
            </g>
            <g fill-rule="evenodd">
                <path fill="#E4B722" d="M88.2 114.2h38.6v-7.8H88.2c-2 0-3.6 1.6-3.6 3.6v.6c0 2 1.6 3.6 3.6 3.6"></path>
                <path fill="#FFCC06" d="M88.2 114.2h26v-7.8h-26c-2 0-3.6 1.6-3.6 3.6v.6c0 2 1.6 3.6 3.6 3.6"></path>
                <path fill="#FFF" d="M89.7 112.4h24.4v-4.2H89.7c-1.1 0-1.9.9-1.9 1.9v.3c0 1.1.9 2 1.9 2"></path>
                <path fill="#CBCACA" d="M114.1 108.2h12.6v4.2h-12.6z"></path>
            </g>
            <g fill-rule="evenodd">
                <path fill="#07101A"
                      d="M126.1 116.5l30.3 6c4.9 1 8.3-2.7 10.6-7.1l11.4-26.7c1.3-6.4 1.8-6.3-3.9-9l-2.7 1.3-15.3 32.4-19.9-3.9c-4.7-1.1-9.5 2.2-10.5 7z">
                </path>
                <path fill="#F79C7E" d="M199 71.6h-19v-2.4h-.1c-6.4 0-11.7-5.3-11.7-11.7V41.3h27.5l3.3 3.5V71.6z">
                </path>
                <path fill="#FBC4A9" d="M181.8 71.2c-7.5 0-13.6-6.1-13.6-13.6V43.4h23v18.4c0 5.1-4.2 9.4-9.4 9.4">
                </path>
                <path fill="#4D1134" d="M199 60.8c-1.2 0-2.1-1-2.1-2.1V50h2.1v10.8z"></path>
                <path fill="#061727" d="M184 73h18.6c7.3 0 13.2 5.9 13.2 13.2v43.6h-45.1V86.2c.1-7.3 6-13.2 13.3-13.2">
                </path>
                <path fill="#E6E6E6" d="M180 71.6h19v58.2h-19z"></path>
                <path fill="#00203E" d="M190.3 71.6l1.8 1.8-1.8 1.9-1.8 1.8-1.8-1.8-1.9-1.9 1.9-1.8z"></path>
                <path fill="#061727" d="M188.5 127.9l3.6-5.4-2.2-49.5-1.4-.3-1.4.3-2.3 49.5z"></path>
                <path fill="#F79C7E" d="M195.3 53v4.8c2.6 0 4.8-2.1 4.8-4.8 0-2.6-2.1-4.8-4.8-4.8V53z"></path>
                <path fill="#5E1F42"
                      d="M195.3 54.3c-2 0-3.7-1.5-4-3.5-2-.1-3.8-1.1-4.9-2.6h-13.3c-4.8 0-8.7-3.9-8.7-8.7 0-4.8 3.9-8.7 8.7-8.7 4.8 0 8.7 3.9 8.7 8.7 0 1.4-.3 2.7-.9 3.9h4.2v-3.5h6.4v3.5h3.8V54.3z">
                </path>
                <path fill="#5E1F42" d="M165.8 43.4H199c0-4.8-3.9-8.8-8.8-8.8h-15.7c-4.7 0-8.7 3.9-8.7 8.8z"></path>
                <path fill="#4D1134" d="M195.3 43.4v4.8c1.5 0 2.8.7 3.7 1.8v-6.6h-3.7z"></path>
                <path fill="#00203E"
                      d="M169.8 124.5h30.9c5 0 9-4.1 9-9h-30.9c-4.9-.1-9 4-9 9zM209.8 115.4h-10.6l6-42c6.1 1.6 10.6 7.1 10.6 13.7l-6 28.3z">
                </path>
                <path fill="#FBC4A9" d="M178.8 115.4c-5 0-9 4.1-9 9H180v-9h-1.2z"></path>
                <path fill="#4D1134"
                      d="M199 43.4c0-.7-.1-1.4-.2-2-.9-3.8-4.4-6.7-8.5-6.7h-6.7c3.4 0 6.3 2.2 7.3 5.3.2.5.3 1 .3 1.4 0 .3.1.6.1.9v1.1h7.7zM195.3 48.2v-4.8h-4v7.4c.3 2 2 3.5 4 3.5v-6.1z">
                </path>
            </g>
            <g fill-rule="evenodd">
                <path fill="#5E1F42"
                      d="M83.6 129.8h182.3c1.4 0 2.5 1.1 2.5 2.5s-1.1 2.5-2.5 2.5H83.6c-1.4 0-2.5-1.1-2.5-2.5-.1-1.4 1.1-2.5 2.5-2.5">
                </path>
                <path fill="#4D1134" d="M93.1 134.8h163.2v71.5H93.1z"></path>
                <path fill="#5E1F42" d="M93.1 134.8h109.1v71.5H93.1z"></path>
            </g>
            <g fill-rule="evenodd">
                <path fill="#A4A6BF"
                      d="M159.7 124.5H188c1.5 0 2.6 1.2 2.6 2.6 0 1.5-1.2 2.6-2.6 2.6h-28.3c-1.5 0-2.6-1.2-2.6-2.6 0-1.4 1.2-2.6 2.6-2.6">
                </path>
                <path fill="#A4A6BF"
                      d="M115.3 94.8h35.3c1.6 0 2.3 1.5 2.9 2.9l13.3 29.1c.7 1.5-1.3 2.9-2.9 2.9h-35.3c-1.6 0-2.3-1.5-2.9-2.9l-13.3-29.1c-.7-1.4 1.2-2.9 2.9-2.9">
                </path>
                <path fill="#7B768E"
                      d="M113 94.8h35.3c1.6 0 2.3 1.5 2.9 2.9l13.3 29.1c.7 1.5-1.3 2.9-2.9 2.9h-35.3c-1.6 0-2.3-1.5-2.9-2.9l-13.3-29.1c-.7-1.4 1.3-2.9 2.9-2.9">
                </path>
                <path fill="#1B1B1B"
                      d="M169.9 126.4h8.1c.4 0 .8.3.8.8 0 .4-.3.8-.8.8h-8.1c-.4 0-.8-.3-.8-.8s.4-.8.8-.8M181.2 126.4h3.7c.4 0 .8.3.8.8 0 .4-.3.8-.8.8h-3.7c-.4 0-.8-.3-.8-.8.1-.5.4-.8.8-.8">
                </path>
            </g>
            <path fill-rule="evenodd" fill="#D4653D"
                  d="M219.1 129.8h38.6V122h-38.6c-2 0-3.6 1.6-3.6 3.6v.6c0 2 1.6 3.6 3.6 3.6"></path>
            <path fill-rule="evenodd" fill="#F47648"
                  d="M219.1 129.8h26V122h-26c-2 0-3.6 1.6-3.6 3.6v.6c0 2 1.6 3.6 3.6 3.6"></path>
            <path fill-rule="evenodd" fill="#FFF"
                  d="M220.7 128h24.4v-4.2h-24.4c-1.1 0-1.9.9-1.9 1.9v.3c-.1 1.1.8 2 1.9 2"></path>
            <path fill-rule="evenodd" fill="#CBCACA" d="M245.1 123.8h12.6v4.2h-12.6z"></path>
            <g fill-rule="evenodd">
                <path fill="#92C13E" d="M212.2 122h38.6v-7.8h-38.6c-2 0-3.6 1.6-3.6 3.6v.6c0 2 1.6 3.6 3.6 3.6"></path>
                <path fill="#9CCB3B" d="M212.2 122h26v-7.8h-26c-2 0-3.6 1.6-3.6 3.6v.6c0 2 1.6 3.6 3.6 3.6"></path>
                <path fill="#FFF" d="M213.7 120.2h24.4V116h-24.4c-1.1 0-1.9.9-1.9 1.9v.3c0 1.1.9 2 1.9 2"></path>
                <path fill="#CBCACA" d="M238.2 116h12.6v4.2h-12.6z"></path>
            </g>
            <path fill-rule="evenodd" fill="#EBBD1E"
                  d="M195.3 115.4h10.4l-1.2 10.9c-.2 1.9-1.2 3.5-2.6 3.5h-2.8c-1.4 0-2.3-1.6-2.6-3.5l-1.2-10.9z"></path>
            <path fill-rule="evenodd" fill="#FFF"
                  d="M194.6 115.4h11.8c.4 0 .7-.3.7-.7 0-.4-.3-.7-.7-.7h-11.8c-.4 0-.7.3-.7.7 0 .4.3.7.7.7"></path>
            <path fill="#FFF"
                  d="M201 110.2c-.1.3-.4.4-.7.3-.3-.1-.4-.4-.3-.7l2.5-6c.1-.2.3-.3.5-.3h3.3c.3 0 .5.2.5.5s-.2.5-.5.5h-3l-2.3 5.7z">
            </path>
            <path fill-rule="evenodd" fill="#FFF"
                  d="M199.4 109.8h2.2c2.3 0 4.2 1.9 4.2 4.2h-10.5c-.1-2.3 1.8-4.2 4.1-4.2"></path>
            <path fill-rule="evenodd" fill="#CBCACA" d="M199.4 109.8h2.5c-.2.6-.7 1.1-1.4 1.1s-1.2-.5-1.4-1.1h.3">
            </path>
            <path fill-rule="evenodd" fill="#E6E6E6"
                  d="M200.6 115.4h5.8c.4 0 .7-.3.7-.7 0-.4-.3-.7-.7-.7h-5.8v1.4zM200.6 114h5.2c0-2.2-1.7-4-3.9-4.1-.2.6-.7 1-1.3 1.1v3z">
            </path>
            <path fill-rule="evenodd" fill="#E4B722" d="M205.7 115.4h-5.1v14.3h1.4c1.4 0 2.4-1.6 2.6-3.5l.3-2.8.8-8z">
            </path>
            <g fill-rule="evenodd">
                <path fill="#E6E6E6" d="M121.8 51.6h22.6v34.8h-28.6V57.7h6z"></path>
                <path fill="#CBCACA" d="M115.8 57.7l6-6.1v6.1z"></path>
                <path fill="#00203E"
                      d="M120.2 71.3h4.6c.2 0 .4.2.4.4s-.2.4-.4.4h-4.6c-.2 0-.4-.2-.4-.4-.1-.2.1-.4.4-.4M127.2 71.3H140c.2 0 .4.2.4.4s-.2.4-.4.4h-12.8c-.2 0-.4-.2-.4-.4s.2-.4.4-.4M120.2 73.4H140c.2 0 .4.2.4.4s-.2.4-.4.4h-19.9c-.2 0-.4-.2-.4-.4s.2-.4.5-.4M120.2 75.6H140c.2 0 .4.2.4.4s-.2.4-.4.4h-19.9c-.2 0-.4-.2-.4-.4s.2-.4.5-.4M120.2 77.8H140c.2 0 .4.2.4.4s-.2.4-.4.4h-19.9c-.2 0-.4-.2-.4-.4s.2-.4.5-.4M120.2 80.1H140c.2 0 .4.2.4.4s-.2.4-.4.4h-19.9c-.2 0-.4-.2-.4-.4 0-.3.2-.4.5-.4M120.2 82.3H140c.2 0 .4.2.4.4s-.2.4-.4.4h-19.9c-.2 0-.4-.2-.4-.4s.2-.4.5-.4">
                </path>
                <path fill="#9CCB3B" d="M130.1 62.3v5.3c-2.9 0-5.3-2.4-5.3-5.3s2.4-5.3 5.3-5.3 5.3 2.4 5.3 5.3h-5.3z">
                </path>
                <path fill="#F47648" d="M131 63.1v5.3c2.9 0 5.3-2.4 5.3-5.3H131z"></path>
            </g>
            <g fill-rule="evenodd">
                <path fill="#9CCB3B"
                      d="M223.8 45.8c-5.2-.8-10.1 2.7-11 8-.5 3.4.8 6.7 3.2 8.8l-.3 3.5 3.2-1.8c.6.2 1.2.4 1.8.5 5.2.8 10.1-2.7 11-8 .8-5.3-2.7-10.2-7.9-11">
                </path>
                <path fill="#FFF"
                      d="M225.3 55.7c.8 0 1.2.6 1.2 1.8 0 .5-.1 1-.3 1.3-.2.3-.6.4-1 .4s-.7-.2-.9-.5-.3-.7-.3-1.2.1-1 .3-1.3c.3-.3.6-.5 1-.5m-2.2 1.9c0 .7.2 1.3.6 1.8.4.5 1 .7 1.6.7.7 0 1.2-.2 1.7-.7.4-.5.6-1.1.6-1.9 0-.8-.2-1.4-.6-1.9-.4-.5-1-.7-1.7-.7s-1.3.3-1.7.8c-.3.5-.5 1.2-.5 1.9zm-4.4-7.1c.4 0 .7.2.9.5.2.3.3.7.3 1.3 0 .6-.1 1-.3 1.3-.2.3-.5.5-.9.5s-.6-.2-.8-.5c-.2-.3-.3-.7-.3-1.2-.1-1.3.3-1.9 1.1-1.9zm-2.1 1.9c0 .7.2 1.3.6 1.8.4.5.9.7 1.5.7s1.2-.2 1.6-.7c.4-.5.7-1.1.7-1.9 0-.8-.2-1.5-.6-2-.4-.5-1-.7-1.6-.7-.7 0-1.3.3-1.6.9-.5.5-.6 1.2-.6 1.9zm7.7-2.5l-2.7 4.7-2.9 4.8c-.1.1-.1.3-.1.4 0 .1.1.2.2.3.1.1.3.1.4 0 .1 0 .3-.1.3-.3l1.5-2.5c.1-.1.3-.5.7-1.2.4-.7.7-1.3 1-1.7l.9-1.5c.3-.6.7-1.1.9-1.5l.5-.8c.2-.4.1-.7-.2-.8-.1-.1-.3-.1-.4 0 .1-.2 0-.1-.1.1z">
                </path>
            </g>
            <g fill-rule="evenodd">
                <path fill="#9CCB3B"
                      d="M94.7 70.7c5.3-.4 9.9 3.6 10.2 8.9.2 3.5-1.4 6.6-4 8.5v3.5l-3-2.1c-.6.2-1.2.3-1.9.3-5.3.4-9.9-3.6-10.2-8.9-.4-5.3 3.6-9.9 8.9-10.2">
                </path>
                <path fill="#FFF"
                      d="M94.5 74.2l.1 1c-.7.2-1.4.5-1.9 1.1-.5.6-.7 1.2-.7 1.9 0 .4.1.8.3 1.1.2.3.4.5.8.7.3.2.7.3 1 .4.3.1.7.2 1.2.2.4.1.6.1.9.2.2.1.4.2.7.3.2.1.4.3.5.5.1.2.2.4.2.7 0 .5-.1 1-.5 1.3-.4.3-.9.5-1.5.6-.7 0-1.4-.1-2.1-.4-.2-.1-.4-.1-.5-.1-.2 0-.3.1-.4.2-.1.1-.1.3-.1.4 0 .3.2.5.6.6.7.3 1.5.5 2.4.4l.1 1c0 .3.2.5.5.5.4 0 .5-.2.5-.6l-.1-1c.8-.2 1.4-.6 1.9-1.1.4-.5.6-1.2.6-2 0-.4-.1-.8-.3-1.1-.2-.3-.4-.6-.7-.7-.3-.2-.6-.3-1-.4-.3-.1-.7-.2-1.2-.3-.3-.1-.5-.1-.6-.1l-.5-.1c-.3-.1-.4-.1-.5-.2-.1-.1-.2-.1-.3-.2l-.3-.3c-.1-.1-.1-.3-.1-.5 0-.5.1-.9.5-1.3s.9-.6 1.4-.6c.6 0 1.2.1 1.8.3.3.1.4.1.6.1.2 0 .3-.1.4-.2.1-.1.1-.2.1-.4s-.2-.4-.4-.6c-.6-.3-1.3-.4-2-.4l-.1-1c0-.4-.2-.5-.6-.5-.5.1-.7.3-.7.6">
                </path>
            </g>
            <path fill-rule="evenodd" fill="#00203E"
                  d="M153.5 69.7h2.9v3c0 .5.2.8.6.8.5 0 .7-.2.7-.6v-1.4-1.8h2.7c.3 0 .5-.1.6-.2.1-.1.2-.3.2-.5 0-.4-.2-.7-.7-.7h-2.8v-3.1c0-.6-.2-.9-.7-.9-.2 0-.4.1-.5.2-.1.1-.2.3-.2.5v3.1h-2.6c-.3 0-.5 0-.7.1-.2.1-.2.2-.2.5 0 .2 0 .4.1.6.2.3.4.4.6.4M242 99.5h1.9v2c0 .4.1.5.4.5.3 0 .5-.1.5-.4v-.9-1.2h1.8c.2 0 .3 0 .4-.1s.1-.2.1-.3c0-.3-.1-.4-.4-.4h-1.9v-2c0-.4-.1-.6-.4-.6-.1 0-.2 0-.3.1-.1.1-.1.2-.1.3v2.2h-1.7c-.2 0-.4 0-.5.1-.1.1-.2.2-.2.3 0 .1 0 .3.1.4h.3M216.6 33.1h1.9v2c0 .4.1.5.4.5.3 0 .5-.1.5-.4v-.9-1.2h1.8c.2 0 .3 0 .4-.1.1-.1.1-.2.1-.3 0-.3-.1-.4-.4-.4h-1.9v-2c0-.4-.1-.6-.4-.6-.1 0-.2 0-.3.1-.1.1-.1.2-.1.3v2.2h-1.7c-.2 0-.4 0-.5.1-.1.1-.2.2-.2.3 0 .1 0 .3.1.4 0-.1.1 0 .3 0M101.8 46.2h1.9v2c0 .4.1.5.4.5.3 0 .5-.1.5-.4v-.9-1.2h1.8c.2 0 .3 0 .4-.1.1-.1.1-.2.1-.3 0-.3-.1-.4-.4-.4h-1.9v-2c0-.4-.1-.6-.4-.6-.1 0-.2 0-.3.1-.1.1-.1.2-.1.3v2.2H102c-.2 0-.4 0-.5.1-.1.1-.2.2-.2.3 0 .1 0 .3.1.4.2-.1.3 0 .4 0">
            </path>
            <g fill-rule="evenodd">
                <path fill="#9CCB3B"
                      d="M144 21.8c5.2-.8 10.1 2.7 11 8 .5 3.4-.8 6.7-3.2 8.8l.3 3.5-3.2-1.8c-.6.2-1.2.4-1.8.5-5.2.8-10.1-2.7-11-8-.9-5.2 2.7-10.1 7.9-11">
                </path>
                <path fill="#FFF"
                      d="M148.6 31.8c.8 0 1.2.6 1.2 1.8 0 .5-.1 1-.3 1.3-.2.3-.6.4-1 .4s-.7-.2-.9-.5c-.2-.3-.3-.7-.3-1.2s.1-1 .3-1.3c.3-.3.6-.5 1-.5m-2.2 1.9c0 .7.2 1.3.6 1.8.4.5 1 .7 1.6.7.7 0 1.2-.2 1.7-.7.4-.5.6-1.1.6-1.9 0-.8-.2-1.4-.6-1.9-.4-.5-1-.7-1.7-.7s-1.3.3-1.7.8c-.4.5-.5 1.2-.5 1.9zm-4.4-7.1c.4 0 .7.2.9.5.2.3.3.7.3 1.3 0 .6-.1 1-.3 1.3-.2.3-.5.5-.9.5-.3 0-.6-.2-.8-.5-.2-.3-.3-.7-.3-1.2-.1-1.3.3-1.9 1.1-1.9zm-2.2 1.9c0 .7.2 1.3.6 1.8.4.5.9.7 1.5.7s1.2-.2 1.6-.7c.4-.5.7-1.1.7-1.9 0-.8-.2-1.5-.6-2-.4-.5-1-.7-1.6-.7-.7 0-1.3.3-1.6.9-.4.5-.6 1.1-.6 1.9zm7.8-2.5l-2.7 4.7-2.9 4.8c-.1.1-.1.3-.1.4 0 .1.1.2.2.3.1.1.3.1.4 0 .1 0 .3-.1.3-.3l1.5-2.5c.1-.1.3-.5.7-1.2.4-.7.7-1.3 1-1.7l.9-1.5c.3-.6.7-1.1.9-1.5l.5-.8c.2-.4.1-.7-.2-.8-.1-.1-.3-.1-.4 0 .1-.2 0-.1-.1.1z">
                </path>
            </g>
            <path fill-rule="evenodd" fill="#00203E"
                  d="M177.6 18.3h1.4v1.5c0 .3.1.4.3.4.2 0 .4-.1.4-.3v-.7-.9h1.3c.1 0 .3 0 .3-.1.1-.1.1-.1.1-.2 0-.2-.1-.3-.3-.3h-1.4v-1.5c0-.3-.1-.4-.3-.4-.1 0-.2 0-.2.1-.1.1-.1.1-.1.3v1.6h-1.3c-.1 0-.3 0-.3.1-.1 0-.1.1-.1.2s0 .2.1.3c-.1-.1 0-.1.1-.1M94.1 98.7h1.4v1.5c0 .3.1.4.3.4.2 0 .4-.1.4-.3v-.7-.9h1.3c.1 0 .3 0 .3-.1.1-.1.1-.1.1-.2 0-.2-.1-.3-.3-.3h-1.4v-1.5c0-.3-.1-.4-.3-.4-.1 0-.2 0-.2.1-.1.1-.1.1-.1.3V98h-1.3c-.1 0-.3 0-.3.1-.1 0-.1.1-.1.2s0 .2.1.3c-.1 0 0 .1.1.1M118.4 20.1h1.4v1.5c0 .3.1.4.3.4.2 0 .4-.1.4-.3V21v-.9h1.3c.1 0 .3 0 .3-.1.1-.1.1-.1.1-.2 0-.2-.1-.3-.3-.3h-1.4V18c0-.3-.1-.4-.3-.4-.1 0-.2 0-.2.1-.1.1-.1.1-.1.3v1.6h-1.3c-.1 0-.3 0-.3.1-.1 0-.1.1-.1.2s0 .2.1.3c-.1-.2 0-.1.1-.1M220.7 81.4h1.4v1.5c0 .3.1.4.3.4.2 0 .4-.1.4-.3v-.7-.9h1.3c.1 0 .3 0 .3-.1.1-.1.1-.1.1-.2 0-.2-.1-.3-.3-.3h-1.4v-1.5c0-.3-.1-.4-.3-.4-.1 0-.2 0-.2.1-.1.1-.1.1-.1.3v1.6h-1.3c-.1 0-.3 0-.3.1-.1 0-.1.1-.1.2s0 .2.1.3c-.1-.1 0-.1.1-.1M249.1 55.2h1.4v1.5c0 .3.1.4.3.4.2 0 .4-.1.4-.3v-.7-.9h1.3c.1 0 .3 0 .3-.1.1-.1.1-.1.1-.2 0-.2-.1-.3-.3-.3h-1.4V53c0-.3-.1-.4-.3-.4-.1 0-.2 0-.2.1-.1.1-.1.1-.1.3v1.6h-1.3c-.1 0-.3 0-.3.1-.1 0-.1.1-.1.2s0 .2.1.3c-.1-.1 0 0 .1 0">
            </path>
        </g>
    </switch>
</svg>